<svg width="137" height="132" viewBox="0 0 137 132" fill="none" xmlns="http://www.w3.org/2000/svg">
<path d="M9.65416 1.06438C9.76302 0.72936 10.237 0.72936 10.3458 1.06438L12.1635 6.65856C12.2122 6.80839 12.3518 6.90983 12.5093 6.90983H18.3914C18.7437 6.90983 18.8901 7.3606 18.6051 7.56765L13.8465 11.025C13.719 11.1176 13.6657 11.2818 13.7144 11.4316L15.532 17.0258C15.6409 17.3608 15.2574 17.6394 14.9724 17.4323L10.2137 13.975C10.0863 13.8824 9.91371 13.8824 9.78626 13.975L5.02757 17.4323C4.74258 17.6394 4.35913 17.3608 4.46799 17.0258L6.28565 11.4316C6.33433 11.2818 6.281 11.1176 6.15355 11.025L1.39485 7.56765C1.10987 7.3606 1.25633 6.90983 1.60859 6.90983H7.49066C7.6482 6.90983 7.78782 6.80839 7.8365 6.65856L9.65416 1.06438Z" fill="#EAB308"/>
<path d="M29.6542 1.06438C29.763 0.72936 30.237 0.72936 30.3458 1.06438L32.1635 6.65856C32.2122 6.80839 32.3518 6.90983 32.5093 6.90983H38.3914C38.7437 6.90983 38.8901 7.3606 38.6051 7.56765L33.8465 11.025C33.719 11.1176 33.6657 11.2818 33.7144 11.4316L35.532 17.0258C35.6409 17.3608 35.2574 17.6394 34.9724 17.4323L30.2137 13.975C30.0863 13.8824 29.9137 13.8824 29.7863 13.975L25.0276 17.4323C24.7426 17.6394 24.3591 17.3608 24.468 17.0258L26.2856 11.4316C26.3343 11.2818 26.281 11.1176 26.1535 11.025L21.3949 7.56765C21.1099 7.3606 21.2563 6.90983 21.6086 6.90983H27.4907C27.6482 6.90983 27.7878 6.80839 27.8365 6.65856L29.6542 1.06438Z" fill="#EAB308"/>
<path d="M49.6542 1.06438C49.763 0.72936 50.237 0.72936 50.3458 1.06438L52.1635 6.65856C52.2122 6.80839 52.3518 6.90983 52.5093 6.90983H58.3914C58.7437 6.90983 58.8901 7.3606 58.6051 7.56765L53.8465 11.025C53.719 11.1176 53.6657 11.2818 53.7144 11.4316L55.532 17.0258C55.6409 17.3608 55.2574 17.6394 54.9724 17.4323L50.2137 13.975C50.0863 13.8824 49.9137 13.8824 49.7863 13.975L45.0276 17.4323C44.7426 17.6394 44.3591 17.3608 44.468 17.0258L46.2856 11.4316C46.3343 11.2818 46.281 11.1176 46.1535 11.025L41.3949 7.56765C41.1099 7.3606 41.2563 6.90983 41.6086 6.90983H47.4907C47.6482 6.90983 47.7878 6.80839 47.8365 6.65856L49.6542 1.06438Z" fill="#EAB308"/>
<path d="M69.6542 1.06438C69.763 0.72936 70.237 0.72936 70.3458 1.06438L72.1635 6.65856C72.2122 6.80839 72.3518 6.90983 72.5093 6.90983H78.3914C78.7437 6.90983 78.8901 7.3606 78.6051 7.56765L73.8465 11.025C73.719 11.1176 73.6657 11.2818 73.7144 11.4316L75.532 17.0258C75.6409 17.3608 75.2574 17.6394 74.9724 17.4323L70.2137 13.975C70.0863 13.8824 69.9137 13.8824 69.7863 13.975L65.0276 17.4323C64.7426 17.6394 64.3591 17.3608 64.468 17.0258L66.2856 11.4316C66.3343 11.2818 66.281 11.1176 66.1535 11.025L61.3949 7.56765C61.1099 7.3606 61.2563 6.90983 61.6086 6.90983H67.4907C67.6482 6.90983 67.7878 6.80839 67.8365 6.65856L69.6542 1.06438Z" fill="#EAB308"/>
<path d="M89.6542 1.06438C89.763 0.72936 90.237 0.72936 90.3458 1.06438L92.1635 6.65856C92.2122 6.80839 92.3518 6.90983 92.5093 6.90983H98.3914C98.7437 6.90983 98.8901 7.3606 98.6051 7.56765L93.8465 11.025C93.719 11.1176 93.6657 11.2818 93.7144 11.4316L95.532 17.0258C95.6409 17.3608 95.2574 17.6394 94.9724 17.4323L90.2137 13.975C90.0863 13.8824 89.9137 13.8824 89.7863 13.975L85.0276 17.4323C84.7426 17.6394 84.3591 17.3608 84.468 17.0258L86.2856 11.4316C86.3343 11.2818 86.281 11.1176 86.1535 11.025L81.3949 7.56765C81.1099 7.3606 81.2563 6.90983 81.6086 6.90983H87.4907C87.6482 6.90983 87.7878 6.80839 87.8365 6.65856L89.6542 1.06438Z" fill="#EAB308"/>
<path d="M110.716 9.236C110.193 9.03067 109.792 8.732 109.512 8.34C109.232 7.948 109.092 7.472 109.092 6.912C109.092 6.408 109.218 5.95533 109.47 5.554C109.722 5.14333 110.095 4.82133 110.59 4.588C111.094 4.34533 111.701 4.224 112.41 4.224C113.119 4.224 113.721 4.34533 114.216 4.588C114.72 4.82133 115.098 5.14333 115.35 5.554C115.611 5.95533 115.742 6.408 115.742 6.912C115.742 7.45333 115.597 7.92933 115.308 8.34C115.019 8.74133 114.622 9.04 114.118 9.236C114.697 9.41333 115.154 9.726 115.49 10.174C115.835 10.6127 116.008 11.1447 116.008 11.77C116.008 12.3767 115.859 12.9087 115.56 13.366C115.261 13.814 114.837 14.164 114.286 14.416C113.745 14.6587 113.119 14.78 112.41 14.78C111.701 14.78 111.075 14.6587 110.534 14.416C110.002 14.164 109.587 13.814 109.288 13.366C108.989 12.9087 108.84 12.3767 108.84 11.77C108.84 11.1447 109.008 10.608 109.344 10.16C109.68 9.712 110.137 9.404 110.716 9.236ZM114.51 7.066C114.51 6.49667 114.323 6.058 113.95 5.75C113.577 5.442 113.063 5.288 112.41 5.288C111.766 5.288 111.257 5.442 110.884 5.75C110.511 6.058 110.324 6.50133 110.324 7.08C110.324 7.60267 110.515 8.02267 110.898 8.34C111.29 8.65733 111.794 8.816 112.41 8.816C113.035 8.816 113.539 8.65733 113.922 8.34C114.314 8.01333 114.51 7.58867 114.51 7.066ZM112.41 9.796C111.719 9.796 111.155 9.95933 110.716 10.286C110.277 10.6033 110.058 11.084 110.058 11.728C110.058 12.3253 110.268 12.806 110.688 13.17C111.117 13.534 111.691 13.716 112.41 13.716C113.129 13.716 113.698 13.534 114.118 13.17C114.538 12.806 114.748 12.3253 114.748 11.728C114.748 11.1027 114.533 10.6267 114.104 10.3C113.675 9.964 113.11 9.796 112.41 9.796ZM117.7 9.334C117.7 7.72867 117.961 6.478 118.484 5.582C119.007 4.67667 119.921 4.224 121.228 4.224C122.525 4.224 123.435 4.67667 123.958 5.582C124.481 6.478 124.742 7.72867 124.742 9.334C124.742 10.9673 124.481 12.2367 123.958 13.142C123.435 14.0473 122.525 14.5 121.228 14.5C119.921 14.5 119.007 14.0473 118.484 13.142C117.961 12.2367 117.7 10.9673 117.7 9.334ZM123.482 9.334C123.482 8.522 123.426 7.836 123.314 7.276C123.211 6.70667 122.992 6.24933 122.656 5.904C122.329 5.55867 121.853 5.386 121.228 5.386C120.593 5.386 120.108 5.55867 119.772 5.904C119.445 6.24933 119.226 6.70667 119.114 7.276C119.011 7.836 118.96 8.522 118.96 9.334C118.96 10.174 119.011 10.8787 119.114 11.448C119.226 12.0173 119.445 12.4747 119.772 12.82C120.108 13.1653 120.593 13.338 121.228 13.338C121.853 13.338 122.329 13.1653 122.656 12.82C122.992 12.4747 123.211 12.0173 123.314 11.448C123.426 10.8787 123.482 10.174 123.482 9.334ZM126.211 6.66C126.211 6.02533 126.402 5.52133 126.785 5.148C127.168 4.76533 127.658 4.574 128.255 4.574C128.852 4.574 129.342 4.76533 129.725 5.148C130.108 5.52133 130.299 6.02533 130.299 6.66C130.299 7.304 130.108 7.81733 129.725 8.2C129.342 8.57333 128.852 8.76 128.255 8.76C127.658 8.76 127.168 8.57333 126.785 8.2C126.402 7.81733 126.211 7.304 126.211 6.66ZM134.387 4.728L128.717 14.5H127.457L133.127 4.728H134.387ZM128.255 5.358C127.938 5.358 127.686 5.47 127.499 5.694C127.322 5.90867 127.233 6.23067 127.233 6.66C127.233 7.08933 127.322 7.416 127.499 7.64C127.686 7.864 127.938 7.976 128.255 7.976C128.572 7.976 128.824 7.864 129.011 7.64C129.198 7.40667 129.291 7.08 129.291 6.66C129.291 6.23067 129.198 5.90867 129.011 5.694C128.824 5.47 128.572 5.358 128.255 5.358ZM131.573 12.568C131.573 11.924 131.764 11.4153 132.147 11.042C132.53 10.6593 133.02 10.468 133.617 10.468C134.214 10.468 134.7 10.6593 135.073 11.042C135.456 11.4153 135.647 11.924 135.647 12.568C135.647 13.2027 135.456 13.7113 135.073 14.094C134.7 14.4767 134.214 14.668 133.617 14.668C133.02 14.668 132.53 14.4813 132.147 14.108C131.764 13.7253 131.573 13.212 131.573 12.568ZM133.603 11.266C133.286 11.266 133.034 11.378 132.847 11.602C132.66 11.8167 132.567 12.1387 132.567 12.568C132.567 12.988 132.66 13.31 132.847 13.534C133.034 13.7487 133.286 13.856 133.603 13.856C133.92 13.856 134.172 13.7487 134.359 13.534C134.546 13.31 134.639 12.988 134.639 12.568C134.639 12.1387 134.546 11.8167 134.359 11.602C134.172 11.378 133.92 11.266 133.603 11.266Z" fill="#334155"/>
<path d="M9.65416 29.0644C9.76302 28.7294 10.237 28.7294 10.3458 29.0644L12.1635 34.6586C12.2122 34.8084 12.3518 34.9098 12.5093 34.9098H18.3914C18.7437 34.9098 18.8901 35.3606 18.6051 35.5677L13.8465 39.025C13.719 39.1176 13.6657 39.2818 13.7144 39.4316L15.532 45.0258C15.6409 45.3608 15.2574 45.6394 14.9724 45.4323L10.2137 41.975C10.0863 41.8824 9.91371 41.8824 9.78626 41.975L5.02757 45.4323C4.74258 45.6394 4.35913 45.3608 4.46799 45.0258L6.28565 39.4316C6.33433 39.2818 6.281 39.1176 6.15355 39.025L1.39485 35.5677C1.10987 35.3606 1.25633 34.9098 1.60859 34.9098H7.49066C7.6482 34.9098 7.78782 34.8084 7.8365 34.6586L9.65416 29.0644Z" fill="#EAB308"/>
<path d="M29.6542 29.0644C29.763 28.7294 30.237 28.7294 30.3458 29.0644L32.1635 34.6586C32.2122 34.8084 32.3518 34.9098 32.5093 34.9098H38.3914C38.7437 34.9098 38.8901 35.3606 38.6051 35.5677L33.8465 39.025C33.719 39.1176 33.6657 39.2818 33.7144 39.4316L35.532 45.0258C35.6409 45.3608 35.2574 45.6394 34.9724 45.4323L30.2137 41.975C30.0863 41.8824 29.9137 41.8824 29.7863 41.975L25.0276 45.4323C24.7426 45.6394 24.3591 45.3608 24.468 45.0258L26.2856 39.4316C26.3343 39.2818 26.281 39.1176 26.1535 39.025L21.3949 35.5677C21.1099 35.3606 21.2563 34.9098 21.6086 34.9098H27.4907C27.6482 34.9098 27.7878 34.8084 27.8365 34.6586L29.6542 29.0644Z" fill="#EAB308"/>
<path d="M49.6542 29.0644C49.763 28.7294 50.237 28.7294 50.3458 29.0644L52.1635 34.6586C52.2122 34.8084 52.3518 34.9098 52.5093 34.9098H58.3914C58.7437 34.9098 58.8901 35.3606 58.6051 35.5677L53.8465 39.025C53.719 39.1176 53.6657 39.2818 53.7144 39.4316L55.532 45.0258C55.6409 45.3608 55.2574 45.6394 54.9724 45.4323L50.2137 41.975C50.0863 41.8824 49.9137 41.8824 49.7863 41.975L45.0276 45.4323C44.7426 45.6394 44.3591 45.3608 44.468 45.0258L46.2856 39.4316C46.3343 39.2818 46.281 39.1176 46.1535 39.025L41.3949 35.5677C41.1099 35.3606 41.2563 34.9098 41.6086 34.9098H47.4907C47.6482 34.9098 47.7878 34.8084 47.8365 34.6586L49.6542 29.0644Z" fill="#EAB308"/>
<path d="M69.6542 29.0644C69.763 28.7294 70.237 28.7294 70.3458 29.0644L72.1635 34.6586C72.2122 34.8084 72.3518 34.9098 72.5093 34.9098H78.3914C78.7437 34.9098 78.8901 35.3606 78.6051 35.5677L73.8465 39.025C73.719 39.1176 73.6657 39.2818 73.7144 39.4316L75.532 45.0258C75.6409 45.3608 75.2574 45.6394 74.9724 45.4323L70.2137 41.975C70.0863 41.8824 69.9137 41.8824 69.7863 41.975L65.0276 45.4323C64.7426 45.6394 64.3591 45.3608 64.468 45.0258L66.2856 39.4316C66.3343 39.2818 66.281 39.1176 66.1535 39.025L61.3949 35.5677C61.1099 35.3606 61.2563 34.9098 61.6086 34.9098H67.4907C67.6482 34.9098 67.7878 34.8084 67.8365 34.6586L69.6542 29.0644Z" fill="#EAB308"/>
<path d="M89.6542 29.0644C89.763 28.7294 90.237 28.7294 90.3458 29.0644L92.1635 34.6586C92.2122 34.8084 92.3518 34.9098 92.5093 34.9098H98.3914C98.7437 34.9098 98.8901 35.3606 98.6051 35.5677L93.8465 39.025C93.719 39.1176 93.6657 39.2818 93.7144 39.4316L95.532 45.0258C95.6409 45.3608 95.2574 45.6394 94.9724 45.4323L90.2137 41.975C90.0863 41.8824 89.9137 41.8824 89.7863 41.975L85.0276 45.4323C84.7426 45.6394 84.3591 45.3608 84.468 45.0258L86.2856 39.4316C86.3343 39.2818 86.281 39.1176 86.1535 39.025L81.3949 35.5677C81.1099 35.3606 81.2563 34.9098 81.6086 34.9098H87.4907C87.6482 34.9098 87.7878 34.8084 87.8365 34.6586L89.6542 29.0644Z" fill="#CBD5E1"/>
<path d="M108.532 33.54V32.378H111.164V42.5H109.876V33.54H108.532ZM113.352 37.334C113.352 35.7287 113.614 34.478 114.136 33.582C114.659 32.6767 115.574 32.224 116.88 32.224C118.178 32.224 119.088 32.6767 119.61 33.582C120.133 34.478 120.394 35.7287 120.394 37.334C120.394 38.9673 120.133 40.2367 119.61 41.142C119.088 42.0473 118.178 42.5 116.88 42.5C115.574 42.5 114.659 42.0473 114.136 41.142C113.614 40.2367 113.352 38.9673 113.352 37.334ZM119.134 37.334C119.134 36.522 119.078 35.836 118.966 35.276C118.864 34.7067 118.644 34.2493 118.308 33.904C117.982 33.5587 117.506 33.386 116.88 33.386C116.246 33.386 115.76 33.5587 115.424 33.904C115.098 34.2493 114.878 34.7067 114.766 35.276C114.664 35.836 114.612 36.522 114.612 37.334C114.612 38.174 114.664 38.8787 114.766 39.448C114.878 40.0173 115.098 40.4747 115.424 40.82C115.76 41.1653 116.246 41.338 116.88 41.338C117.506 41.338 117.982 41.1653 118.308 40.82C118.644 40.4747 118.864 40.0173 118.966 39.448C119.078 38.8787 119.134 38.174 119.134 37.334ZM121.863 34.66C121.863 34.0253 122.055 33.5213 122.437 33.148C122.82 32.7653 123.31 32.574 123.907 32.574C124.505 32.574 124.995 32.7653 125.377 33.148C125.76 33.5213 125.951 34.0253 125.951 34.66C125.951 35.304 125.76 35.8173 125.377 36.2C124.995 36.5733 124.505 36.76 123.907 36.76C123.31 36.76 122.82 36.5733 122.437 36.2C122.055 35.8173 121.863 35.304 121.863 34.66ZM130.039 32.728L124.369 42.5H123.109L128.779 32.728H130.039ZM123.907 33.358C123.59 33.358 123.338 33.47 123.151 33.694C122.974 33.9087 122.885 34.2307 122.885 34.66C122.885 35.0893 122.974 35.416 123.151 35.64C123.338 35.864 123.59 35.976 123.907 35.976C124.225 35.976 124.477 35.864 124.663 35.64C124.85 35.4067 124.943 35.08 124.943 34.66C124.943 34.2307 124.85 33.9087 124.663 33.694C124.477 33.47 124.225 33.358 123.907 33.358ZM127.225 40.568C127.225 39.924 127.417 39.4153 127.799 39.042C128.182 38.6593 128.672 38.468 129.269 38.468C129.867 38.468 130.352 38.6593 130.725 39.042C131.108 39.4153 131.299 39.924 131.299 40.568C131.299 41.2027 131.108 41.7113 130.725 42.094C130.352 42.4767 129.867 42.668 129.269 42.668C128.672 42.668 128.182 42.4813 127.799 42.108C127.417 41.7253 127.225 41.212 127.225 40.568ZM129.255 39.266C128.938 39.266 128.686 39.378 128.499 39.602C128.313 39.8167 128.219 40.1387 128.219 40.568C128.219 40.988 128.313 41.31 128.499 41.534C128.686 41.7487 128.938 41.856 129.255 41.856C129.573 41.856 129.825 41.7487 130.011 41.534C130.198 41.31 130.291 40.988 130.291 40.568C130.291 40.1387 130.198 39.8167 130.011 39.602C129.825 39.378 129.573 39.266 129.255 39.266Z" fill="#334155"/>
<path d="M9.65416 57.0644C9.76302 56.7294 10.237 56.7294 10.3458 57.0644L12.1635 62.6586C12.2122 62.8084 12.3518 62.9098 12.5093 62.9098H18.3914C18.7437 62.9098 18.8901 63.3606 18.6051 63.5677L13.8465 67.025C13.719 67.1176 13.6657 67.2818 13.7144 67.4316L15.532 73.0258C15.6409 73.3608 15.2574 73.6394 14.9724 73.4323L10.2137 69.975C10.0863 69.8824 9.91371 69.8824 9.78626 69.975L5.02757 73.4323C4.74258 73.6394 4.35913 73.3608 4.46799 73.0258L6.28565 67.4316C6.33433 67.2818 6.281 67.1176 6.15355 67.025L1.39485 63.5677C1.10987 63.3606 1.25633 62.9098 1.60859 62.9098H7.49066C7.6482 62.9098 7.78782 62.8084 7.8365 62.6586L9.65416 57.0644Z" fill="#EAB308"/>
<path d="M29.6542 57.0644C29.763 56.7294 30.237 56.7294 30.3458 57.0644L32.1635 62.6586C32.2122 62.8084 32.3518 62.9098 32.5093 62.9098H38.3914C38.7437 62.9098 38.8901 63.3606 38.6051 63.5677L33.8465 67.025C33.719 67.1176 33.6657 67.2818 33.7144 67.4316L35.532 73.0258C35.6409 73.3608 35.2574 73.6394 34.9724 73.4323L30.2137 69.975C30.0863 69.8824 29.9137 69.8824 29.7863 69.975L25.0276 73.4323C24.7426 73.6394 24.3591 73.3608 24.468 73.0258L26.2856 67.4316C26.3343 67.2818 26.281 67.1176 26.1535 67.025L21.3949 63.5677C21.1099 63.3606 21.2563 62.9098 21.6086 62.9098H27.4907C27.6482 62.9098 27.7878 62.8084 27.8365 62.6586L29.6542 57.0644Z" fill="#EAB308"/>
<path d="M49.6542 57.0644C49.763 56.7294 50.237 56.7294 50.3458 57.0644L52.1635 62.6586C52.2122 62.8084 52.3518 62.9098 52.5093 62.9098H58.3914C58.7437 62.9098 58.8901 63.3606 58.6051 63.5677L53.8465 67.025C53.719 67.1176 53.6657 67.2818 53.7144 67.4316L55.532 73.0258C55.6409 73.3608 55.2574 73.6394 54.9724 73.4323L50.2137 69.975C50.0863 69.8824 49.9137 69.8824 49.7863 69.975L45.0276 73.4323C44.7426 73.6394 44.3591 73.3608 44.468 73.0258L46.2856 67.4316C46.3343 67.2818 46.281 67.1176 46.1535 67.025L41.3949 63.5677C41.1099 63.3606 41.2563 62.9098 41.6086 62.9098H47.4907C47.6482 62.9098 47.7878 62.8084 47.8365 62.6586L49.6542 57.0644Z" fill="#EAB308"/>
<path d="M69.6542 57.0644C69.763 56.7294 70.237 56.7294 70.3458 57.0644L72.1635 62.6586C72.2122 62.8084 72.3518 62.9098 72.5093 62.9098H78.3914C78.7437 62.9098 78.8901 63.3606 78.6051 63.5677L73.8465 67.025C73.719 67.1176 73.6657 67.2818 73.7144 67.4316L75.532 73.0258C75.6409 73.3608 75.2574 73.6394 74.9724 73.4323L70.2137 69.975C70.0863 69.8824 69.9137 69.8824 69.7863 69.975L65.0276 73.4323C64.7426 73.6394 64.3591 73.3608 64.468 73.0258L66.2856 67.4316C66.3343 67.2818 66.281 67.1176 66.1535 67.025L61.3949 63.5677C61.1099 63.3606 61.2563 62.9098 61.6086 62.9098H67.4907C67.6482 62.9098 67.7878 62.8084 67.8365 62.6586L69.6542 57.0644Z" fill="#CBD5E1"/>
<path d="M89.6542 57.0644C89.763 56.7294 90.237 56.7294 90.3458 57.0644L92.1635 62.6586C92.2122 62.8084 92.3518 62.9098 92.5093 62.9098H98.3914C98.7437 62.9098 98.8901 63.3606 98.6051 63.5677L93.8465 67.025C93.719 67.1176 93.6657 67.2818 93.7144 67.4316L95.532 73.0258C95.6409 73.3608 95.2574 73.6394 94.9724 73.4323L90.2137 69.975C90.0863 69.8824 89.9137 69.8824 89.7863 69.975L85.0276 73.4323C84.7426 73.6394 84.3591 73.3608 84.468 73.0258L86.2856 67.4316C86.3343 67.2818 86.281 67.1176 86.1535 67.025L81.3949 63.5677C81.1099 63.3606 81.2563 62.9098 81.6086 62.9098H87.4907C87.6482 62.9098 87.7878 62.8084 87.8365 62.6586L89.6542 57.0644Z" fill="#CBD5E1"/>
<path d="M115.322 61.484H110.408V64.676C110.623 64.3773 110.94 64.1347 111.36 63.948C111.78 63.752 112.233 63.654 112.718 63.654C113.493 63.654 114.123 63.8173 114.608 64.144C115.093 64.4613 115.439 64.8767 115.644 65.39C115.859 65.894 115.966 66.4307 115.966 67C115.966 67.672 115.84 68.274 115.588 68.806C115.336 69.338 114.949 69.758 114.426 70.066C113.913 70.374 113.273 70.528 112.508 70.528C111.528 70.528 110.735 70.276 110.128 69.772C109.521 69.268 109.153 68.596 109.022 67.756H110.268C110.389 68.288 110.646 68.7033 111.038 69.002C111.43 69.3007 111.925 69.45 112.522 69.45C113.259 69.45 113.815 69.2307 114.188 68.792C114.561 68.344 114.748 67.756 114.748 67.028C114.748 66.3 114.561 65.74 114.188 65.348C113.815 64.9467 113.264 64.746 112.536 64.746C112.041 64.746 111.607 64.8673 111.234 65.11C110.87 65.3433 110.604 65.6653 110.436 66.076H109.232V60.364H115.322V61.484ZM117.379 62.66C117.379 62.0253 117.57 61.5213 117.953 61.148C118.336 60.7653 118.826 60.574 119.423 60.574C120.02 60.574 120.51 60.7653 120.893 61.148C121.276 61.5213 121.467 62.0253 121.467 62.66C121.467 63.304 121.276 63.8173 120.893 64.2C120.51 64.5733 120.02 64.76 119.423 64.76C118.826 64.76 118.336 64.5733 117.953 64.2C117.57 63.8173 117.379 63.304 117.379 62.66ZM125.555 60.728L119.885 70.5H118.625L124.295 60.728H125.555ZM119.423 61.358C119.106 61.358 118.854 61.47 118.667 61.694C118.49 61.9087 118.401 62.2307 118.401 62.66C118.401 63.0893 118.49 63.416 118.667 63.64C118.854 63.864 119.106 63.976 119.423 63.976C119.74 63.976 119.992 63.864 120.179 63.64C120.366 63.4067 120.459 63.08 120.459 62.66C120.459 62.2307 120.366 61.9087 120.179 61.694C119.992 61.47 119.74 61.358 119.423 61.358ZM122.741 68.568C122.741 67.924 122.932 67.4153 123.315 67.042C123.698 66.6593 124.188 66.468 124.785 66.468C125.382 66.468 125.868 66.6593 126.241 67.042C126.624 67.4153 126.815 67.924 126.815 68.568C126.815 69.2027 126.624 69.7113 126.241 70.094C125.868 70.4767 125.382 70.668 124.785 70.668C124.188 70.668 123.698 70.4813 123.315 70.108C122.932 69.7253 122.741 69.212 122.741 68.568ZM124.771 67.266C124.454 67.266 124.202 67.378 124.015 67.602C123.828 67.8167 123.735 68.1387 123.735 68.568C123.735 68.988 123.828 69.31 124.015 69.534C124.202 69.7487 124.454 69.856 124.771 69.856C125.088 69.856 125.34 69.7487 125.527 69.534C125.714 69.31 125.807 68.988 125.807 68.568C125.807 68.1387 125.714 67.8167 125.527 67.602C125.34 67.378 125.088 67.266 124.771 67.266Z" fill="#334155"/>
<path d="M9.65416 85.0644C9.76302 84.7294 10.237 84.7294 10.3458 85.0644L12.1635 90.6586C12.2122 90.8084 12.3518 90.9098 12.5093 90.9098H18.3914C18.7437 90.9098 18.8901 91.3606 18.6051 91.5677L13.8465 95.025C13.719 95.1176 13.6657 95.2818 13.7144 95.4316L15.532 101.026C15.6409 101.361 15.2574 101.639 14.9724 101.432L10.2137 97.975C10.0863 97.8824 9.91371 97.8824 9.78626 97.975L5.02757 101.432C4.74258 101.639 4.35913 101.361 4.46799 101.026L6.28565 95.4316C6.33433 95.2818 6.281 95.1176 6.15355 95.025L1.39485 91.5677C1.10987 91.3606 1.25633 90.9098 1.60859 90.9098H7.49066C7.6482 90.9098 7.78782 90.8084 7.8365 90.6586L9.65416 85.0644Z" fill="#EAB308"/>
<path d="M29.6542 85.0644C29.763 84.7294 30.237 84.7294 30.3458 85.0644L32.1635 90.6586C32.2122 90.8084 32.3518 90.9098 32.5093 90.9098H38.3914C38.7437 90.9098 38.8901 91.3606 38.6051 91.5677L33.8465 95.025C33.719 95.1176 33.6657 95.2818 33.7144 95.4316L35.532 101.026C35.6409 101.361 35.2574 101.639 34.9724 101.432L30.2137 97.975C30.0863 97.8824 29.9137 97.8824 29.7863 97.975L25.0276 101.432C24.7426 101.639 24.3591 101.361 24.468 101.026L26.2856 95.4316C26.3343 95.2818 26.281 95.1176 26.1535 95.025L21.3949 91.5677C21.1099 91.3606 21.2563 90.9098 21.6086 90.9098H27.4907C27.6482 90.9098 27.7878 90.8084 27.8365 90.6586L29.6542 85.0644Z" fill="#EAB308"/>
<path d="M49.6542 85.0644C49.763 84.7294 50.237 84.7294 50.3458 85.0644L52.1635 90.6586C52.2122 90.8084 52.3518 90.9098 52.5093 90.9098H58.3914C58.7437 90.9098 58.8901 91.3606 58.6051 91.5677L53.8465 95.025C53.719 95.1176 53.6657 95.2818 53.7144 95.4316L55.532 101.026C55.6409 101.361 55.2574 101.639 54.9724 101.432L50.2137 97.975C50.0863 97.8824 49.9137 97.8824 49.7863 97.975L45.0276 101.432C44.7426 101.639 44.3591 101.361 44.468 101.026L46.2856 95.4316C46.3343 95.2818 46.281 95.1176 46.1535 95.025L41.3949 91.5677C41.1099 91.3606 41.2563 90.9098 41.6086 90.9098H47.4907C47.6482 90.9098 47.7878 90.8084 47.8365 90.6586L49.6542 85.0644Z" fill="#CBD5E1"/>
<path d="M69.6542 85.0644C69.763 84.7294 70.237 84.7294 70.3458 85.0644L72.1635 90.6586C72.2122 90.8084 72.3518 90.9098 72.5093 90.9098H78.3914C78.7437 90.9098 78.8901 91.3606 78.6051 91.5677L73.8465 95.025C73.719 95.1176 73.6657 95.2818 73.7144 95.4316L75.532 101.026C75.6409 101.361 75.2574 101.639 74.9724 101.432L70.2137 97.975C70.0863 97.8824 69.9137 97.8824 69.7863 97.975L65.0276 101.432C64.7426 101.639 64.3591 101.361 64.468 101.026L66.2856 95.4316C66.3343 95.2818 66.281 95.1176 66.1535 95.025L61.3949 91.5677C61.1099 91.3606 61.2563 90.9098 61.6086 90.9098H67.4907C67.6482 90.9098 67.7878 90.8084 67.8365 90.6586L69.6542 85.0644Z" fill="#CBD5E1"/>
<path d="M89.6542 85.0644C89.763 84.7294 90.237 84.7294 90.3458 85.0644L92.1635 90.6586C92.2122 90.8084 92.3518 90.9098 92.5093 90.9098H98.3914C98.7437 90.9098 98.8901 91.3606 98.6051 91.5677L93.8465 95.025C93.719 95.1176 93.6657 95.2818 93.7144 95.4316L95.532 101.026C95.6409 101.361 95.2574 101.639 94.9724 101.432L90.2137 97.975C90.0863 97.8824 89.9137 97.8824 89.7863 97.975L85.0276 101.432C84.7426 101.639 84.3591 101.361 84.468 101.026L86.2856 95.4316C86.3343 95.2818 86.281 95.1176 86.1535 95.025L81.3949 91.5677C81.1099 91.3606 81.2563 90.9098 81.6086 90.9098H87.4907C87.6482 90.9098 87.7878 90.8084 87.8365 90.6586L89.6542 85.0644Z" fill="#CBD5E1"/>
<path d="M108.84 90.926C108.905 90.0673 109.237 89.3953 109.834 88.91C110.431 88.4247 111.206 88.182 112.158 88.182C112.793 88.182 113.339 88.2987 113.796 88.532C114.263 88.756 114.613 89.064 114.846 89.456C115.089 89.848 115.21 90.2913 115.21 90.786C115.21 91.3647 115.042 91.864 114.706 92.284C114.379 92.704 113.95 92.9747 113.418 93.096V93.166C114.025 93.3153 114.505 93.6093 114.86 94.048C115.215 94.4867 115.392 95.0607 115.392 95.77C115.392 96.302 115.271 96.7827 115.028 97.212C114.785 97.632 114.421 97.9633 113.936 98.206C113.451 98.4487 112.867 98.57 112.186 98.57C111.197 98.57 110.385 98.3133 109.75 97.8C109.115 97.2773 108.761 96.54 108.686 95.588H109.918C109.983 96.148 110.212 96.6053 110.604 96.96C110.996 97.3147 111.519 97.492 112.172 97.492C112.825 97.492 113.32 97.324 113.656 96.988C114.001 96.6427 114.174 96.1993 114.174 95.658C114.174 94.958 113.941 94.454 113.474 94.146C113.007 93.838 112.303 93.684 111.36 93.684H111.038V92.62H111.374C112.233 92.6107 112.881 92.4707 113.32 92.2C113.759 91.92 113.978 91.4907 113.978 90.912C113.978 90.4173 113.815 90.0207 113.488 89.722C113.171 89.4233 112.713 89.274 112.116 89.274C111.537 89.274 111.071 89.4233 110.716 89.722C110.361 90.0207 110.151 90.422 110.086 90.926H108.84ZM116.832 90.66C116.832 90.0253 117.023 89.5213 117.406 89.148C117.789 88.7653 118.279 88.574 118.876 88.574C119.473 88.574 119.963 88.7653 120.346 89.148C120.729 89.5213 120.92 90.0253 120.92 90.66C120.92 91.304 120.729 91.8173 120.346 92.2C119.963 92.5733 119.473 92.76 118.876 92.76C118.279 92.76 117.789 92.5733 117.406 92.2C117.023 91.8173 116.832 91.304 116.832 90.66ZM125.008 88.728L119.338 98.5H118.078L123.748 88.728H125.008ZM118.876 89.358C118.559 89.358 118.307 89.47 118.12 89.694C117.943 89.9087 117.854 90.2307 117.854 90.66C117.854 91.0893 117.943 91.416 118.12 91.64C118.307 91.864 118.559 91.976 118.876 91.976C119.193 91.976 119.445 91.864 119.632 91.64C119.819 91.4067 119.912 91.08 119.912 90.66C119.912 90.2307 119.819 89.9087 119.632 89.694C119.445 89.47 119.193 89.358 118.876 89.358ZM122.194 96.568C122.194 95.924 122.385 95.4153 122.768 95.042C123.151 94.6593 123.641 94.468 124.238 94.468C124.835 94.468 125.321 94.6593 125.694 95.042C126.077 95.4153 126.268 95.924 126.268 96.568C126.268 97.2027 126.077 97.7113 125.694 98.094C125.321 98.4767 124.835 98.668 124.238 98.668C123.641 98.668 123.151 98.4813 122.768 98.108C122.385 97.7253 122.194 97.212 122.194 96.568ZM124.224 95.266C123.907 95.266 123.655 95.378 123.468 95.602C123.281 95.8167 123.188 96.1387 123.188 96.568C123.188 96.988 123.281 97.31 123.468 97.534C123.655 97.7487 123.907 97.856 124.224 97.856C124.541 97.856 124.793 97.7487 124.98 97.534C125.167 97.31 125.26 96.988 125.26 96.568C125.26 96.1387 125.167 95.8167 124.98 95.602C124.793 95.378 124.541 95.266 124.224 95.266Z" fill="#334155"/>
<path d="M9.65416 113.064C9.76302 112.729 10.237 112.729 10.3458 113.064L12.1635 118.659C12.2122 118.808 12.3518 118.91 12.5093 118.91H18.3914C18.7437 118.91 18.8901 119.361 18.6051 119.568L13.8465 123.025C13.719 123.118 13.6657 123.282 13.7144 123.432L15.532 129.026C15.6409 129.361 15.2574 129.639 14.9724 129.432L10.2137 125.975C10.0863 125.882 9.91371 125.882 9.78626 125.975L5.02757 129.432C4.74258 129.639 4.35913 129.361 4.46799 129.026L6.28565 123.432C6.33433 123.282 6.281 123.118 6.15355 123.025L1.39485 119.568C1.10987 119.361 1.25633 118.91 1.60859 118.91H7.49066C7.6482 118.91 7.78782 118.808 7.8365 118.659L9.65416 113.064Z" fill="#EAB308"/>
<path d="M29.6542 113.064C29.763 112.729 30.237 112.729 30.3458 113.064L32.1635 118.659C32.2122 118.808 32.3518 118.91 32.5093 118.91H38.3914C38.7437 118.91 38.8901 119.361 38.6051 119.568L33.8465 123.025C33.719 123.118 33.6657 123.282 33.7144 123.432L35.532 129.026C35.6409 129.361 35.2574 129.639 34.9724 129.432L30.2137 125.975C30.0863 125.882 29.9137 125.882 29.7863 125.975L25.0276 129.432C24.7426 129.639 24.3591 129.361 24.468 129.026L26.2856 123.432C26.3343 123.282 26.281 123.118 26.1535 123.025L21.3949 119.568C21.1099 119.361 21.2563 118.91 21.6086 118.91H27.4907C27.6482 118.91 27.7878 118.808 27.8365 118.659L29.6542 113.064Z" fill="#CBD5E1"/>
<path d="M49.6542 113.064C49.763 112.729 50.237 112.729 50.3458 113.064L52.1635 118.659C52.2122 118.808 52.3518 118.91 52.5093 118.91H58.3914C58.7437 118.91 58.8901 119.361 58.6051 119.568L53.8465 123.025C53.719 123.118 53.6657 123.282 53.7144 123.432L55.532 129.026C55.6409 129.361 55.2574 129.639 54.9724 129.432L50.2137 125.975C50.0863 125.882 49.9137 125.882 49.7863 125.975L45.0276 129.432C44.7426 129.639 44.3591 129.361 44.468 129.026L46.2856 123.432C46.3343 123.282 46.281 123.118 46.1535 123.025L41.3949 119.568C41.1099 119.361 41.2563 118.91 41.6086 118.91H47.4907C47.6482 118.91 47.7878 118.808 47.8365 118.659L49.6542 113.064Z" fill="#CBD5E1"/>
<path d="M69.6542 113.064C69.763 112.729 70.237 112.729 70.3458 113.064L72.1635 118.659C72.2122 118.808 72.3518 118.91 72.5093 118.91H78.3914C78.7437 118.91 78.8901 119.361 78.6051 119.568L73.8465 123.025C73.719 123.118 73.6657 123.282 73.7144 123.432L75.532 129.026C75.6409 129.361 75.2574 129.639 74.9724 129.432L70.2137 125.975C70.0863 125.882 69.9137 125.882 69.7863 125.975L65.0276 129.432C64.7426 129.639 64.3591 129.361 64.468 129.026L66.2856 123.432C66.3343 123.282 66.281 123.118 66.1535 123.025L61.3949 119.568C61.1099 119.361 61.2563 118.91 61.6086 118.91H67.4907C67.6482 118.91 67.7878 118.808 67.8365 118.659L69.6542 113.064Z" fill="#CBD5E1"/>
<path d="M89.6542 113.064C89.763 112.729 90.237 112.729 90.3458 113.064L92.1635 118.659C92.2122 118.808 92.3518 118.91 92.5093 118.91H98.3914C98.7437 118.91 98.8901 119.361 98.6051 119.568L93.8465 123.025C93.719 123.118 93.6657 123.282 93.7144 123.432L95.532 129.026C95.6409 129.361 95.2574 129.639 94.9724 129.432L90.2137 125.975C90.0863 125.882 89.9137 125.882 89.7863 125.975L85.0276 129.432C84.7426 129.639 84.3591 129.361 84.468 129.026L86.2856 123.432C86.3343 123.282 86.281 123.118 86.1535 123.025L81.3949 119.568C81.1099 119.361 81.2563 118.91 81.6086 118.91H87.4907C87.6482 118.91 87.7878 118.808 87.8365 118.659L89.6542 113.064Z" fill="#CBD5E1"/>
<path d="M108.714 125.478C109.899 124.526 110.828 123.747 111.5 123.14C112.172 122.524 112.737 121.885 113.194 121.222C113.661 120.55 113.894 119.892 113.894 119.248C113.894 118.641 113.745 118.165 113.446 117.82C113.157 117.465 112.685 117.288 112.032 117.288C111.397 117.288 110.903 117.489 110.548 117.89C110.203 118.282 110.016 118.809 109.988 119.472H108.756C108.793 118.427 109.111 117.619 109.708 117.05C110.305 116.481 111.075 116.196 112.018 116.196C112.979 116.196 113.74 116.462 114.3 116.994C114.869 117.526 115.154 118.259 115.154 119.192C115.154 119.967 114.921 120.723 114.454 121.46C113.997 122.188 113.474 122.832 112.886 123.392C112.298 123.943 111.547 124.587 110.632 125.324H115.448V126.388H108.714V125.478ZM116.641 118.66C116.641 118.025 116.832 117.521 117.215 117.148C117.597 116.765 118.087 116.574 118.685 116.574C119.282 116.574 119.772 116.765 120.155 117.148C120.537 117.521 120.729 118.025 120.729 118.66C120.729 119.304 120.537 119.817 120.155 120.2C119.772 120.573 119.282 120.76 118.685 120.76C118.087 120.76 117.597 120.573 117.215 120.2C116.832 119.817 116.641 119.304 116.641 118.66ZM124.817 116.728L119.147 126.5H117.887L123.557 116.728H124.817ZM118.685 117.358C118.367 117.358 118.115 117.47 117.929 117.694C117.751 117.909 117.663 118.231 117.663 118.66C117.663 119.089 117.751 119.416 117.929 119.64C118.115 119.864 118.367 119.976 118.685 119.976C119.002 119.976 119.254 119.864 119.441 119.64C119.627 119.407 119.721 119.08 119.721 118.66C119.721 118.231 119.627 117.909 119.441 117.694C119.254 117.47 119.002 117.358 118.685 117.358ZM122.003 124.568C122.003 123.924 122.194 123.415 122.577 123.042C122.959 122.659 123.449 122.468 124.047 122.468C124.644 122.468 125.129 122.659 125.503 123.042C125.885 123.415 126.077 123.924 126.077 124.568C126.077 125.203 125.885 125.711 125.503 126.094C125.129 126.477 124.644 126.668 124.047 126.668C123.449 126.668 122.959 126.481 122.577 126.108C122.194 125.725 122.003 125.212 122.003 124.568ZM124.033 123.266C123.715 123.266 123.463 123.378 123.277 123.602C123.09 123.817 122.997 124.139 122.997 124.568C122.997 124.988 123.09 125.31 123.277 125.534C123.463 125.749 123.715 125.856 124.033 125.856C124.35 125.856 124.602 125.749 124.789 125.534C124.975 125.31 125.069 124.988 125.069 124.568C125.069 124.139 124.975 123.817 124.789 123.602C124.602 123.378 124.35 123.266 124.033 123.266Z" fill="#334155"/>
</svg>
